<?xml version="1.0" standalone="no"?>
<!DOCTYPE svg PUBLIC "-//W3C//DTD SVG 20010904//EN"
 "http://www.w3.org/TR/2001/REC-SVG-20010904/DTD/svg10.dtd">
<svg version="1.0" xmlns="http://www.w3.org/2000/svg"
 width="310.000000pt" height="310.000000pt" viewBox="0 0 310.000000 310.000000"
 preserveAspectRatio="xMidYMid meet">

<g transform="translate(0.000000,310.000000) scale(0.100000,-0.100000)"
fill="#000000" stroke="none">
<path d="M1445 2435 c-5 -2 -37 -11 -70 -21 -229 -66 -440 -275 -593 -589 -19
-38 -38 -79 -42 -90 -4 -11 -13 -33 -20 -50 -87 -210 -133 -579 -99 -797 45
-290 198 -537 424 -683 315 -204 694 -204 1010 0 223 143 370 375 420 658 17
98 19 311 4 422 -17 123 -64 313 -99 400 -7 17 -16 39 -20 50 -30 79 -111 228
-169 310 -180 258 -407 396 -646 394 -49 0 -94 -2 -100 -4z m246 -61 c196 -58
358 -195 505 -429 133 -211 213 -452 235 -713 30 -342 -41 -604 -221 -820
-177 -212 -479 -334 -749 -302 -209 25 -365 104 -531 270 -132 131 -191 234
-242 421 -20 74 -23 107 -22 279 0 173 3 209 27 322 59 278 165 506 323 698
115 140 254 236 395 274 74 20 212 20 280 0z"/>
</g>
</svg>
